{
  "accessors": [
    {
      "bufferView": 2,
      "componentType": 5126,
      "count": 272,
      "max": [
        14.8558349609375,
        124.32546997070313,
        20.52734375
      ],
      "min": [
        -14.03509521484375,
        -0.5363807678222656,
        -8.36376953125
      ],
      "type": "VEC3"
    },
    {
      "bufferView": 2,
      "byteOffset": 3264,
      "componentType": 5126,
      "count": 272,
      "max": [
        1.0,
        0.9951512813568115,
        1.0
      ],
      "min": [
        -1.0,
        -4.451531765425898e-07,
        -1.0
      ],
      "type": "VEC3"
    },
    {
      "bufferView": 1,
      "componentType": 5126,
      "count": 272,
      "max": [
        0.0,
        0.0
      ],
      "min": [
        0.0,
        0.0
      ],
      "type": "VEC2"
    },
    {
      "bufferView": 1,
      "byteOffset": 2176,
      "componentType": 5126,
      "count": 272,
      "max": [
        0.31049829721450806,
        1.0
      ],
      "min": [
        0.0,
        0.0
      ],
      "type": "VEC2"
    },
    {
      "bufferView": 0,
      "componentType": 5125,
      "count": 960,
      "type": "SCALAR"
    },
    {
      "bufferView": 2,
      "byteOffset": 6528,
      "componentType": 5126,
      "count": 956,
      "max": [
        13.471229553222656,
        157.6723175048828,
        9.74725341796875
      ],
      "min": [
        -13.569007873535156,
        139.67872619628906,
        -6.02362060546875
      ],
      "type": "VEC3"
    },
    {
      "bufferView": 2,
      "byteOffset": 18000,
      "componentType": 5126,
      "count": 956,
      "max": [
        0.9949943423271179,
        1.0,
        0.9973123669624329
      ],
      "min": [
        -0.9949944615364075,
        0.06880932301282883,
        -0.9958097338676453
      ],
      "type": "VEC3"
    },
    {
      "bufferView": 1,
      "byteOffset": 4352,
      "componentType": 5126,
      "count": 956,
      "max": [
        0.1849999874830246,
        0.973200261592865
      ],
      "min": [
        0.024999987334012985,
        0.8540205955505371
      ],
      "type": "VEC2"
    },
    {
      "bufferView": 0,
      "byteOffset": 3840,
      "componentType": 5125,
      "count": 5088,
      "type": "SCALAR"
    },
    {
      "bufferView": 2,
      "byteOffset": 29472,
      "componentType": 5126,
      "count": 5360,
      "max": [
        27.1991024017334,
        153.1749267578125,
        18.515459060668945
      ],
      "min": [
        -27.195695877075195,
        79.31947326660156,
        -12.489439964294434
      ],
      "type": "VEC3"
    },
    {
      "bufferView": 2,
      "byteOffset": 93792,
      "componentType": 5126,
      "count": 5360,
      "max": [
        0.9997909665107727,
        0.9966626763343811,
        0.9992976188659668
      ],
      "min": [
        -0.9999670386314392,
        -0.9950741529464722,
        -0.9999997615814209
      ],
      "type": "VEC3"
    },
    {
      "bufferView": 1,
      "byteOffset": 12000,
      "componentType": 5126,
      "count": 5360,
      "max": [
        0.8435843586921692,
        0.8347829580307007
      ],
      "min": [
        0.15998737514019012,
        0.15483804047107697
      ],
      "type": "VEC2"
    },
    {
      "bufferView": 0,
      "byteOffset": 24192,
      "componentType": 5125,
      "count": 30048,
      "type": "SCALAR"
    },
    {
      "bufferView": 2,
      "byteOffset": 158112,
      "componentType": 5126,
      "count": 429,
      "max": [
        7.816692352294922,
        153.36605834960938,
        12.131640434265137
      ],
      "min": [
        -8.509361267089844,
        144.77793884277344,
        -4.7411956787109375
      ],
      "type": "VEC3"
    },
    {
      "bufferView": 2,
      "byteOffset": 163260,
      "componentType": 5126,
      "count": 429,
      "max": [
        0.9722290635108948,
        0.9905495047569275,
        0.8399235606193542
      ],
      "min": [
        -0.9722299575805664,
        0.1903221160173416,
        -0.9817217588424683
      ],
      "type": "VEC3"
    },
    {
      "bufferView": 1,
      "byteOffset": 54880,
      "componentType": 5126,
      "count": 429,
      "max": [
        0.8198820352554321,
        0.539126992225647
      ],
      "min": [
        0.7472499012947083,
        0.2970660328865051
      ],
      "type": "VEC2"
    },
    {
      "bufferView": 0,
      "byteOffset": 144384,
      "componentType": 5125,
      "count": 2304,
      "type": "SCALAR"
    }
  ],
  "asset": {
    "extras": {
      "author": "eeelabvisual (https://sketchfab.com/eeelabvisual)",
      "license": "CC-BY-4.0 (http://creativecommons.org/licenses/by/4.0/)",
      "source": "https://sketchfab.com/3d-models/1-men-batik-shirt-short-6a74f27d527340afa566cf5cdb272c15",
      "title": "1 Men Batik Shirt Short"
    },
    "generator": "Sketchfab-12.63.0",
    "version": "2.0"
  },
  "bufferViews": [
    {
      "buffer": 0,
      "byteLength": 153600,
      "name": "floatBufferViews",
      "target": 34963
    },
    {
      "buffer": 0,
      "byteLength": 58312,
      "byteOffset": 153600,
      "byteStride": 8,
      "name": "floatBufferViews",
      "target": 34962
    },
    {
      "buffer": 0,
      "byteLength": 168408,
      "byteOffset": 211912,
      "byteStride": 12,
      "name": "floatBufferViews",
      "target": 34962
    }
  ],
  "buffers": [
    {
      "byteLength": 380320,
      "uri": "scene.bin"
    }
  ],
  "extensionsRequired": [
    "KHR_materials_pbrSpecularGlossiness"
  ],
  "extensionsUsed": [
    "KHR_materials_pbrSpecularGlossiness"
  ],
  "images": [
    {
      "uri": "textures/pasted__tex_baru3_diffuse.png"
    }
  ],
  "materials": [
    {
      "doubleSided": true,
      "extensions": {
        "KHR_materials_pbrSpecularGlossiness": {
          "diffuseFactor": [
            0.8,
            0.8,
            0.8,
            1.0
          ],
          "glossinessFactor": 0.12060452757971843,
          "specularFactor": [
            0.05,
            0.05,
            0.05
          ]
        }
      },
      "name": "stand"
    },
    {
      "doubleSided": true,
      "extensions": {
        "KHR_materials_pbrSpecularGlossiness": {
          "diffuseFactor": [
            0.8,
            0.8,
            0.8,
            1.0
          ],
          "glossinessFactor": 0.12060452757971843,
          "specularFactor": [
            0.05,
            0.05,
            0.05
          ]
        }
      },
      "name": "dummy"
    },
    {
      "doubleSided": true,
      "extensions": {
        "KHR_materials_pbrSpecularGlossiness": {
          "diffuseFactor": [
            1.0,
            1.0,
            1.0,
            1.0
          ],
          "diffuseTexture": {
            "index": 0
          },
          "glossinessFactor": 0.10573712634405641,
          "specularFactor": [
            0.05,
            0.05,
            0.05
          ]
        }
      },
      "name": "pasted__tex_baru3"
    }
  ],
  "meshes": [
    {
      "name": "polySurface17_stand_0",
      "primitives": [
        {
          "attributes": {
            "NORMAL": 1,
            "POSITION": 0,
            "TEXCOORD_0": 2,
            "TEXCOORD_1": 3
          },
          "indices": 4,
          "material": 0,
          "mode": 4
        }
      ]
    },
    {
      "name": "polySurface18_dummy_0",
      "primitives": [
        {
          "attributes": {
            "NORMAL": 6,
            "POSITION": 5,
            "TEXCOORD_0": 7
          },
          "indices": 8,
          "material": 1,
          "mode": 4
        }
      ]
    },
    {
      "name": "pasted__polySurface13_pasted__tex_baru3_0",
      "primitives": [
        {
          "attributes": {
            "NORMAL": 10,
            "POSITION": 9,
            "TEXCOORD_0": 11
          },
          "indices": 12,
          "material": 2,
          "mode": 4
        }
      ]
    },
    {
      "name": "pasted__polySurface14_pasted__tex_baru3_0",
      "primitives": [
        {
          "attributes": {
            "NORMAL": 14,
            "POSITION": 13,
            "TEXCOORD_0": 15
          },
          "indices": 16,
          "material": 2,
          "mode": 4
        }
      ]
    }
  ],
  "nodes": [
    {
      "children": [
        1
      ],
      "matrix": [
        1.0,
        0.0,
        0.0,
        0.0,
        0.0,
        2.220446049250313e-16,
        -1.0,
        0.0,
        0.0,
        1.0,
        2.220446049250313e-16,
        0.0,
        0.0,
        0.0,
        0.0,
        1.0
      ],
      "name": "Sketchfab_model"
    },
    {
      "children": [
        2
      ],
      "matrix": [
        1.0,
        0.0,
        0.0,
        0.0,
        0.0,
        0.0,
        1.0,
        0.0,
        0.0,
        -1.0,
        0.0,
        0.0,
        0.0,
        0.0,
        0.0,
        1.0
      ],
      "name": "8bfcc5b461a2419a963643e04bc6c410.fbx"
    },
    {
      "children": [
        3,
        8
      ],
      "name": "RootNode"
    },
    {
      "children": [
        4,
        6
      ],
      "matrix": [
        1.0,
        0.0,
        0.0,
        0.0,
        0.0,
        1.0,
        0.0,
        0.0,
        0.0,
        0.0,
        1.0,
        0.0,
        0.0,
        -0.8239562511444092,
        0.0,
        1.0
      ],
      "name": "polySurface16"
    },
    {
      "children": [
        5
      ],
      "name": "polySurface17"
    },
    {
      "mesh": 0,
      "name": "polySurface17_stand_0"
    },
    {
      "children": [
        7
      ],
      "name": "polySurface18"
    },
    {
      "mesh": 1,
      "name": "polySurface18_dummy_0"
    },
    {
      "children": [
        9,
        11
      ],
      "matrix": [
        1.0,
        0.0,
        0.0,
        0.0,
        0.0,
        1.0,
        0.0,
        0.0,
        0.0,
        0.0,
        1.0,
        0.0,
        0.0,
        1.0515621900558472,
        0.0,
        1.0
      ],
      "name": "group5"
    },
    {
      "children": [
        10
      ],
      "name": "pasted__polySurface13"
    },
    {
      "mesh": 2,
      "name": "pasted__polySurface13_pasted__tex_baru3_0"
    },
    {
      "children": [
        12
      ],
      "matrix": [
        0.9555555582046509,
        0.0,
        0.0,
        0.0,
        0.0,
        1.0,
        0.0,
        0.0,
        0.0,
        0.0,
        1.0011553764343262,
        0.0,
        0.3191702961921692,
        -0.08117623627185822,
        -0.14665913581848145,
        1.0
      ],
      "name": "pasted__polySurface14"
    },
    {
      "mesh": 3,
      "name": "pasted__polySurface14_pasted__tex_baru3_0"
    }
  ],
  "samplers": [
    {
      "magFilter": 9729,
      "minFilter": 9987,
      "wrapS": 10497,
      "wrapT": 10497
    }
  ],
  "scene": 0,
  "scenes": [
    {
      "name": "Sketchfab_Scene",
      "nodes": [
        0
      ]
    }
  ],
  "textures": [
    {
      "sampler": 0,
      "source": 0
    }
  ]
}
