<svg xmlns="http://www.w3.org/2000/svg" version="1.1" xmlns:xlink="http://www.w3.org/1999/xlink" xmlns:svgjs="http://svgjs.dev/svgjs" width="2000" height="1500" viewBox="0 0 2000 1500"><rect width="2000" height="1500" fill="#fafafa"></rect><g transform="matrix(0.75,0,0,0.75,248.15336134453764,581.5905)"><svg viewBox="0 0 357 80" data-background-color="#fafafa" preserveAspectRatio="xMidYMid meet" height="448" width="2000" xmlns="http://www.w3.org/2000/svg" xmlns:xlink="http://www.w3.org/1999/xlink"><g id="tight-bounds" transform="matrix(1,0,0,1,0.43950000000003797,0.09749999999999659)"><svg viewBox="0 0 356.12052 79.80499421543932" height="79.80499421543932" width="356.12052"><g><svg viewBox="0 0 356.12052 79.80499421543932" height="79.80499421543932" width="356.12052"><g><svg viewBox="0 0 356.12052 79.80499421543932" height="79.80499421543932" width="356.12052"><g><path d="M0 79.805v-79.805h356.121v79.805z" fill="#f1bc15" stroke="transparent" stroke-width="0" rx="0%" data-fill-palette-color="tertiary"></path><path d="M3.283 76.522v-73.239h349.554v73.239z" fill="#000000" stroke="transparent" stroke-width="0" rx="0%" data-fill-palette-color="quaternary"></path><path d="M9.85 69.955v-60.105h336.421v60.105z" fill="#f1bc15" stroke="transparent" stroke-width="0" data-fill-palette-color="tertiary"></path></g><g transform="matrix(1,0,0,1,19.69974,19.69974)" id="textblocktransform"><svg viewBox="0 0 316.72104 40.405514215439325" height="40.405514215439325" width="316.72104" id="textblock"><g><svg viewBox="0 0 316.72104 40.405514215439325" height="40.405514215439325" width="316.72104"><g transform="matrix(1,0,0,1,0,0)"><svg width="316.72104" viewBox="1.95 -35.18 329.5 42.04" height="40.405514215439325" data-palette-color="#000000"><path d="M10.96 0.32L10.96 0.32Q6.32 0.32 4.3-1.14 2.27-2.59 2.17-5.93L2.17-5.93Q1.95-11.52 1.95-17.4 1.95-23.27 2.17-28.81L2.17-28.81Q2.27-32.25 4.3-33.72 6.32-35.18 10.89-35.18L10.89-35.18Q15.33-35.18 17.37-33.74 19.41-32.3 19.58-28.98L19.58-28.98Q19.73-27.42 19.71-25.81 19.7-24.19 19.58-22.63L19.58-22.63 16.19-22.63Q16.31-24.29 16.32-26.09 16.33-27.88 16.19-29.54L16.19-29.54Q16.09-30.93 14.82-31.59 13.55-32.25 10.89-32.25L10.89-32.25Q8.18-32.25 6.9-31.59 5.62-30.93 5.57-29.54L5.57-29.54Q5.37-23.51 5.38-17.44 5.4-11.38 5.57-5.37L5.57-5.37Q5.62-3.96 6.86-3.28 8.11-2.61 10.96-2.61L10.96-2.61Q13.79-2.61 15.14-3.28 16.48-3.96 16.58-5.37L16.58-5.37Q16.63-8.69 16.58-11.99L16.58-11.99 10.84-11.99 10.84-15.06 19.87-15.06Q20-13.35 20.02-11.08 20.04-8.81 19.9-5.93L19.9-5.93Q19.82-2.59 17.71-1.14 15.6 0.32 10.96 0.32ZM29.32 0.27L29.32 0.27Q26.34 0.27 24.91-0.9 23.48-2.08 23.24-4.57L23.24-4.57Q23.22-5.05 23.18-5.54 23.14-6.03 23.19-6.49L23.19-6.49Q23.36-8.67 24.56-10.14 25.75-11.62 29.1-12.84L29.1-12.84Q30.47-13.33 31.98-13.72 33.49-14.11 34.98-14.48L34.98-14.48 34.98-18.99Q34.98-20.19 34.08-20.76 33.18-21.34 30.93-21.34L30.93-21.34Q28.98-21.34 27.96-20.85 26.95-20.36 26.85-19.07L26.85-19.07Q26.8-18.46 26.8-17.32 26.8-16.19 26.85-15.41L26.85-15.41 23.8-15.41Q23.75-16.02 23.7-16.99 23.65-17.97 23.73-18.73L23.73-18.73Q23.85-21.56 25.57-22.81 27.29-24.07 31.05-24.07L31.05-24.07Q34.98-24.07 36.51-22.71 38.03-21.34 38.06-18.21L38.06-18.21 38.06 0 34.98 0 34.98-2.25 34.3-2.25Q33.69-1.03 32.55-0.38 31.42 0.27 29.32 0.27ZM30.1-2.37L30.1-2.37Q33.62-2.37 34.96-4.47L34.96-4.47 34.96-11.87Q33.79-11.62 32.55-11.29 31.32-10.96 29.66-10.4L29.66-10.4Q27.68-9.67 27.02-8.72 26.36-7.76 26.27-6.49L26.27-6.49Q26.29-6.13 26.3-5.7 26.32-5.27 26.36-4.81L26.36-4.81Q26.54-3.64 27.54-3 28.54-2.37 30.1-2.37ZM45.77-19.19L45.77 0 42.62 0 42.62-23.75 45.77-23.75 45.77-21.53 46.45-21.53Q47.09-22.75 48.14-23.41 49.19-24.07 50.75-24.07L50.75-24.07Q53.1-24.07 54.23-22.84 55.37-21.61 55.37-18.58L55.37-18.58Q55.37-17.92 55.32-17.02 55.27-16.11 55.17-15.41L55.17-15.41 52.14-15.41Q52.19-15.65 52.2-16.26 52.22-16.87 52.23-17.48 52.24-18.09 52.24-18.31L52.24-18.31Q52.24-20.12 51.63-20.76 51.02-21.41 49.68-21.41L49.68-21.41Q46.82-21.41 45.77-19.19L45.77-19.19ZM64.62 0.27L64.62 0.27Q61.64 0.27 60.21-0.9 58.78-2.08 58.54-4.57L58.54-4.57Q58.51-5.05 58.48-5.54 58.44-6.03 58.49-6.49L58.49-6.49Q58.66-8.67 59.86-10.14 61.05-11.62 64.4-12.84L64.4-12.84Q65.76-13.33 67.28-13.72 68.79-14.11 70.28-14.48L70.28-14.48 70.28-18.99Q70.28-20.19 69.38-20.76 68.47-21.34 66.23-21.34L66.23-21.34Q64.27-21.34 63.26-20.85 62.25-20.36 62.15-19.07L62.15-19.07Q62.1-18.46 62.1-17.32 62.1-16.19 62.15-15.41L62.15-15.41 59.1-15.41Q59.05-16.02 59-16.99 58.95-17.97 59.03-18.73L59.03-18.73Q59.15-21.56 60.87-22.81 62.59-24.07 66.35-24.07L66.35-24.07Q70.28-24.07 71.81-22.71 73.33-21.34 73.36-18.21L73.36-18.21 73.36 0 70.28 0 70.28-2.25 69.6-2.25Q68.99-1.03 67.85-0.38 66.72 0.27 64.62 0.27ZM65.4-2.37L65.4-2.37Q68.91-2.37 70.26-4.47L70.26-4.47 70.26-11.87Q69.08-11.62 67.85-11.29 66.62-10.96 64.96-10.4L64.96-10.4Q62.98-9.67 62.32-8.72 61.66-7.76 61.56-6.49L61.56-6.49Q61.59-6.13 61.6-5.7 61.61-5.27 61.66-4.81L61.66-4.81Q61.83-3.64 62.83-3 63.84-2.37 65.4-2.37ZM84.54 6.86L84.54 6.86Q81.22 6.86 79.19 6.03 77.16 5.2 77.04 3.42L77.04 3.42Q77.04 3.22 77.02 2.95 76.99 2.69 76.99 2.39L76.99 2.39Q77.09 1.32 78.08 0.66 79.07 0 80.36-0.15L80.36-0.15 80.36-0.76Q77.94-1.27 77.87-2.86L77.87-2.86Q77.85-3.27 77.87-3.69L77.87-3.69Q77.9-4.52 78.64-5.08 79.38-5.64 80.31-5.74L80.31-5.74 80.31-6.35Q77.77-7.45 77.6-11.21L77.6-11.21Q77.53-12.67 77.49-13.76 77.46-14.84 77.48-15.95 77.5-17.07 77.6-18.58L77.6-18.58Q77.72-21.48 79.3-22.78 80.87-24.07 84.34-24.07L84.34-24.07Q86.88-24.07 88.37-23.49 89.86-22.9 90.52-21.66L90.52-21.66 91.2-21.66Q91.37-23.75 94.35-23.75L94.35-23.75 94.35-21.02 93.5-21.02Q91.32-21.02 91.23-18.51L91.23-18.51 91.18-16.58Q91.23-15.16 91.23-14.01 91.23-12.87 91.08-11.21L91.08-11.21Q90.96-8.25 89.42-6.98 87.88-5.71 84.34-5.71L84.34-5.71Q82.29-5.74 81.36-5.4 80.43-5.05 80.43-4.27L80.43-4.27 80.43-4.08Q80.48-3.37 81.46-3.08 82.44-2.78 84.71-2.73L84.71-2.73Q88.34-2.64 90.29-1.7 92.23-0.76 92.4 1.42L92.4 1.42 92.4 2.69Q92.23 4.98 90.05 5.92 87.88 6.86 84.54 6.86ZM84.34-8.47L84.34-8.47Q86.29-8.47 87.11-9.01 87.93-9.55 88-10.77L88-10.77Q88.12-12.5 88.12-14.81 88.12-17.11 88-19.02L88-19.02Q87.93-20.31 87.1-20.83 86.27-21.34 84.34-21.34L84.34-21.34Q82.41-21.34 81.58-20.81 80.75-20.29 80.65-18.99L80.65-18.99Q80.39-14.36 80.65-10.82L80.65-10.82Q80.75-9.62 81.61-9.05 82.46-8.47 84.34-8.47ZM84.61 4.27L84.61 4.27Q86.71 4.27 88.04 3.88 89.37 3.49 89.47 2.49L89.47 2.49Q89.49 2.22 89.48 1.99 89.47 1.76 89.47 1.51L89.47 1.51Q89.37 0.46 88.06 0.16 86.76-0.15 84.61-0.2L84.61-0.2Q82.53-0.24 81.3 0.12 80.07 0.49 79.95 1.54L79.95 1.54 79.95 2.49Q80.07 3.56 81.31 3.92 82.56 4.27 84.61 4.27ZM104.04 0.29L104.04 0.29Q100.01 0.29 98.29-0.98 96.57-2.25 96.45-5.13L96.45-5.13Q96.35-6.93 96.31-9.38 96.28-11.82 96.31-14.28 96.35-16.75 96.45-18.58L96.45-18.58Q96.57-21.53 98.34-22.8 100.11-24.07 104.04-24.07L104.04-24.07Q107.75-24.07 109.41-22.83 111.07-21.58 111.24-18.73L111.24-18.73Q111.29-17.87 111.34-15.75 111.39-13.62 111.19-11.23L111.19-11.23 99.5-11.23Q99.5-9.69 99.52-8.11 99.55-6.52 99.62-4.81L99.62-4.81Q99.65-3.47 100.65-2.95 101.65-2.44 103.94-2.44L103.94-2.44Q106.21-2.44 107.14-2.95 108.07-3.47 108.17-4.81L108.17-4.81Q108.24-6.15 108.17-8.47L108.17-8.47 111.19-8.47Q111.32-7.76 111.3-6.82 111.29-5.88 111.24-5.13L111.24-5.13Q111.07-2.25 109.5-0.98 107.92 0.29 104.04 0.29ZM99.5-13.82L99.5-13.82 108.22-13.82Q108.26-15.48 108.26-16.99 108.26-18.51 108.17-19.07L108.17-19.07Q108.07-20.29 107.12-20.81 106.16-21.34 104.04-21.34L104.04-21.34Q101.67-21.34 100.66-20.81 99.65-20.29 99.62-19.07L99.62-19.07Q99.55-17.65 99.51-16.36 99.47-15.06 99.5-13.82ZM133.45 0.32L133.45 0.32Q128.86 0.32 126.81-1.14 124.76-2.59 124.64-5.93L124.64-5.93Q124.52-7.79 124.56-9.3 124.59-10.82 124.71-12.7L124.71-12.7 128.01-12.7Q127.86-10.82 127.88-8.96 127.89-7.1 128.01-5.37L128.01-5.37Q128.13-3.96 129.35-3.28 130.57-2.61 133.38-2.61L133.38-2.61Q136.14-2.61 137.3-3.28 138.46-3.96 138.61-5.37L138.61-5.37Q138.73-7.1 138.72-8.39 138.7-9.67 138.61-11.57L138.61-11.57Q138.51-13.09 137.81-14.11 137.12-15.14 134.72-15.45L134.72-15.45 131.23-16.09Q128.47-16.55 127.09-17.44 125.71-18.33 125.21-19.74 124.71-21.14 124.62-23.17L124.62-23.17Q124.54-24.51 124.57-26.04 124.59-27.56 124.67-29L124.67-29Q124.71-32.32 126.7-33.75 128.69-35.18 133.38-35.18L133.38-35.18Q137.7-35.18 139.67-33.74 141.63-32.3 141.75-28.98L141.75-28.98Q141.83-27.83 141.8-26.14 141.78-24.44 141.71-22.63L141.71-22.63 138.39-22.63Q138.56-24.37 138.56-26.1 138.56-27.83 138.43-29.54L138.43-29.54Q138.34-30.93 137.15-31.59 135.97-32.25 133.31-32.25L133.31-32.25Q130.55-32.25 129.36-31.59 128.18-30.93 128.06-29.54L128.06-29.54Q127.94-27.98 127.95-26.37 127.96-24.76 128.06-23.17L128.06-23.17Q128.16-21.39 128.83-20.45 129.5-19.51 132.01-19.21L132.01-19.21 135.43-18.68Q138.19-18.26 139.58-17.33 140.97-16.41 141.47-14.98 141.97-13.55 142.05-11.57L142.05-11.57Q142.17-9.77 142.15-8.64 142.12-7.52 142-5.93L142-5.93Q141.83-2.59 139.84-1.14 137.85 0.32 133.45 0.32ZM151.54 0.27L151.54 0.27Q148.56 0.27 147.14-0.9 145.71-2.08 145.46-4.57L145.46-4.57Q145.44-5.05 145.4-5.54 145.37-6.03 145.41-6.49L145.41-6.49Q145.59-8.67 146.78-10.14 147.98-11.62 151.32-12.84L151.32-12.84Q152.69-13.33 154.2-13.72 155.72-14.11 157.21-14.48L157.21-14.48 157.21-18.99Q157.21-20.19 156.3-20.76 155.4-21.34 153.15-21.34L153.15-21.34Q151.2-21.34 150.19-20.85 149.17-20.36 149.08-19.07L149.08-19.07Q149.03-18.46 149.03-17.32 149.03-16.19 149.08-15.41L149.08-15.41 146.02-15.41Q145.98-16.02 145.93-16.99 145.88-17.97 145.95-18.73L145.95-18.73Q146.07-21.56 147.79-22.81 149.52-24.07 153.28-24.07L153.28-24.07Q157.21-24.07 158.73-22.71 160.26-21.34 160.28-18.21L160.28-18.21 160.28 0 157.21 0 157.21-2.25 156.52-2.25Q155.91-1.03 154.78-0.38 153.64 0.27 151.54 0.27ZM152.32-2.37L152.32-2.37Q155.84-2.37 157.18-4.47L157.18-4.47 157.18-11.87Q156.01-11.62 154.78-11.29 153.54-10.96 151.88-10.4L151.88-10.4Q149.91-9.67 149.25-8.72 148.59-7.76 148.49-6.49L148.49-6.49Q148.52-6.13 148.53-5.7 148.54-5.27 148.59-4.81L148.59-4.81Q148.76-3.64 149.76-3 150.76-2.37 152.32-2.37ZM168.53-31.69L168.53 0 165.36 0 165.36-31.69 168.53-31.69ZM181.03 0.29L181.03 0.29Q177 0.29 175.28-0.98 173.56-2.25 173.44-5.13L173.44-5.13Q173.34-6.93 173.3-9.38 173.27-11.82 173.3-14.28 173.34-16.75 173.44-18.58L173.44-18.58Q173.56-21.53 175.33-22.8 177.1-24.07 181.03-24.07L181.03-24.07Q184.74-24.07 186.4-22.83 188.06-21.58 188.23-18.73L188.23-18.73Q188.28-17.87 188.33-15.75 188.38-13.62 188.18-11.23L188.18-11.23 176.49-11.23Q176.49-9.69 176.51-8.11 176.54-6.52 176.61-4.81L176.61-4.81Q176.64-3.47 177.64-2.95 178.64-2.44 180.93-2.44L180.93-2.44Q183.2-2.44 184.13-2.95 185.06-3.47 185.16-4.81L185.16-4.81Q185.23-6.15 185.16-8.47L185.16-8.47 188.18-8.47Q188.31-7.76 188.29-6.82 188.28-5.88 188.23-5.13L188.23-5.13Q188.06-2.25 186.49-0.98 184.91 0.29 181.03 0.29ZM176.49-13.82L176.49-13.82 185.2-13.82Q185.25-15.48 185.25-16.99 185.25-18.51 185.16-19.07L185.16-19.07Q185.06-20.29 184.11-20.81 183.15-21.34 181.03-21.34L181.03-21.34Q178.66-21.34 177.65-20.81 176.64-20.29 176.61-19.07L176.61-19.07Q176.54-17.65 176.5-16.36 176.46-15.06 176.49-13.82ZM210.44 0.32L210.44 0.32Q205.98 0.32 204.05-1.12 202.12-2.56 202-5.88L202-5.88Q201.56-17.43 202-28.98L202-28.98Q202.12-32.01 204.07-33.58 206.02-35.16 210.39-35.16L210.39-35.16Q214.91-35.16 216.97-33.72 219.04-32.28 219.14-28.96L219.14-28.96Q219.18-28.15 219.18-26.97 219.18-25.78 219.15-24.6 219.11-23.41 219.09-22.58L219.09-22.58 215.69-22.58Q215.74-24.17 215.75-26.05 215.77-27.93 215.69-29.52L215.69-29.52Q215.67-30.98 214.48-31.62 213.3-32.25 210.39-32.25L210.39-32.25Q207.73-32.25 206.6-31.62 205.46-30.98 205.39-29.52L205.39-29.52Q205-17.43 205.39-5.32L205.39-5.32Q205.46-3.88 206.6-3.23 207.73-2.59 210.44-2.59L210.44-2.59Q213.5-2.59 214.73-3.23 215.96-3.88 216.03-5.32L216.03-5.32Q216.11-7.03 216.05-9 215.99-10.96 215.91-12.67L215.91-12.67 219.38-12.67Q219.5-10.96 219.53-9.29 219.55-7.62 219.43-5.88L219.43-5.88Q219.28-2.56 217.19-1.12 215.11 0.32 210.44 0.32ZM227.12-31.69L227.12 0 223.94 0 223.94-31.69 227.12-31.69ZM237.61 0.29L237.61 0.29Q234.88 0.29 233.5-0.93 232.12-2.15 232.12-4.96L232.12-4.96 232.12-23.75 235.24-23.75 235.24-4.69Q235.24-3.49 236-2.93 236.76-2.37 238.47-2.37L238.47-2.37Q240.2-2.37 241.51-2.95 242.81-3.54 243.42-4.59L243.42-4.59 243.42-23.75 246.6-23.75 246.6 0 243.42 0 243.42-2.25 242.76-2.25Q241.15 0.29 237.61 0.29ZM260.14 0.29L260.14 0.29Q258.14 0.29 256.97-0.34 255.8-0.98 254.92-2.25L254.92-2.25 254.31-2.25 254.31 0 251.16 0 251.16-31.69 254.31-31.69 254.31-21.53 255.07-21.53Q255.94-22.83 257.1-23.45 258.26-24.07 260.29-24.07L260.29-24.07Q263.1-24.07 264.4-22.86 265.71-21.66 265.78-18.82L265.78-18.82Q265.88-16.67 265.9-14.21 265.93-11.74 265.9-9.35 265.88-6.96 265.78-4.96L265.78-4.96Q265.71-2.15 264.33-0.93 262.95 0.29 260.14 0.29ZM259.36-2.37L259.36-2.37Q261.1-2.37 261.85-2.93 262.61-3.49 262.66-4.69L262.66-4.69Q262.83-7.89 262.83-11.66 262.83-15.43 262.66-19.09L262.66-19.09Q262.61-20.31 261.85-20.86 261.1-21.41 259.36-21.41L259.36-21.41Q255.58-21.41 254.31-19.19L254.31-19.19 254.31-4.59Q255.6-2.37 259.36-2.37ZM294.02-3.13L294.02 0 279.84 0 279.84-34.86 283.23-34.86 283.23-3.13 294.02-3.13ZM300.08-13.21L300.08 0 296.68 0 296.68-34.86 304.91-34.86Q309.33-34.86 311.36-33.45 313.38-32.03 313.6-28.76L313.6-28.76Q313.85-26.03 313.85-23.83 313.85-21.63 313.6-19.31L313.6-19.31Q313.38-16.06 311.34-14.64 309.31-13.21 304.81-13.21L304.81-13.21 300.08-13.21ZM304.91-31.74L300.08-31.74 300.08-16.33 304.81-16.33Q307.65-16.33 308.88-17.03 310.11-17.72 310.23-19.17L310.23-19.17Q310.6-24.02 310.23-28.93L310.23-28.93Q310.11-30.37 308.89-31.05 307.67-31.74 304.91-31.74L304.91-31.74ZM330.25-3.13L330.25 0 315.6 0 315.6-2.88 327.78-31.74 316.38-31.74 316.38-34.86 331.45-34.86 331.45-31.96 319.09-3.13 330.25-3.13Z" opacity="1" transform="matrix(1,0,0,1,0,0)" fill="#000000" class="wordmark-text-0" data-fill-palette-color="quaternary" id="text-0"></path></svg></g></svg></g></svg></g></svg></g><g></g></svg></g><defs></defs></svg><rect width="356.12052" height="79.80499421543932" fill="none" stroke="none" visibility="hidden"></rect></g></svg></g></svg>